<svg width="11" height="8" viewBox="0 0 11 8" fill="none" xmlns="http://www.w3.org/2000/svg">
<path d="M0.500014 4.49999L9.29302 4.49999L6.64651 7.14649C6.59876 7.19261 6.56067 7.24779 6.53446 7.30879C6.50826 7.36979 6.49447 7.4354 6.49389 7.50179C6.49331 7.56818 6.50596 7.63402 6.5311 7.69547C6.55624 7.75691 6.59337 7.81274 6.64032 7.85969C6.68726 7.90663 6.74309 7.94376 6.80454 7.9689C6.86599 7.99404 6.93183 8.00669 6.99822 8.00611C7.0646 8.00554 7.13021 7.99174 7.19122 7.96554C7.25222 7.93934 7.30739 7.90124 7.35351 7.85349L10.8535 4.35349C10.9473 4.25973 10.9999 4.13257 10.9999 3.99999C10.9999 3.86741 10.9473 3.74025 10.8535 3.64649L7.35352 0.146488C7.25921 0.0554093 7.13291 0.00501213 7.00182 0.00615133C6.87072 0.00729052 6.74531 0.0598754 6.65261 0.152579C6.5599 0.245283 6.50732 0.37069 6.50618 0.501788C6.50504 0.632887 6.55544 0.759188 6.64652 0.853489L9.29302 3.49999L0.500014 3.49999C0.367406 3.49999 0.240229 3.55267 0.146461 3.64644C0.0526924 3.7402 1.43093e-05 3.86738 1.42977e-05 3.99999C1.42861e-05 4.1326 0.0526923 4.25977 0.146461 4.35354C0.240229 4.44731 0.367406 4.49999 0.500014 4.49999Z" fill="#8BC652"/>
</svg>
